<?xml version="1.0" encoding="UTF-8" standalone="no"?>
<svg
   xmlns:dc="http://purl.org/dc/elements/1.1/"
   xmlns:cc="http://creativecommons.org/ns#"
   xmlns:rdf="http://www.w3.org/1999/02/22-rdf-syntax-ns#"
   xmlns:svg="http://www.w3.org/2000/svg"
   xmlns="http://www.w3.org/2000/svg"
   version="1.1"
   id="svg2"
   xml:space="preserve"
   width="243.33333"
   height="125.24"
   viewBox="0 0 243.33333 125.24"><metadata
     id="metadata8"><rdf:RDF><cc:Work
         rdf:about=""><dc:format>image/svg+xml</dc:format><dc:type
           rdf:resource="http://purl.org/dc/dcmitype/StillImage" /></cc:Work></rdf:RDF></metadata><defs
     id="defs6"><clipPath
       clipPathUnits="userSpaceOnUse"
       id="clipPath20"><path
         d="M 0,0 H 960 V 540 H 0 Z"
         clip-rule="evenodd"
         id="path18" /></clipPath></defs><g
     id="g10"
     transform="matrix(1.3333333,0,0,-1.3333333,-338.94667,215.17333)"><g
       id="g12"
       transform="matrix(1,0,0,-1,0,540)"><g
         id="g14"><g
           id="g16"
           clip-path="url(#clipPath20)"><g
             id="g22"><path
               d="M 0,0 H 960 V 540 H 0 Z"
               style="fill:#ffffff;fill-opacity:1;fill-rule:evenodd;stroke:none"
               id="path24" /></g><g
             id="g26"><path
               d="m 306.36,188.28 h 86.88 v 86.88 h -86.88 z"
               style="fill:#ffffff;fill-opacity:1;fill-rule:evenodd;stroke:none"
               id="path28" /></g><g
             id="g30"><path
               d="m 395.496,186.031 v 91.397 h -91.398 v -91.397 z m -89.148,4.5 2.25,-2.25 v 86.897 l -2.25,-2.25 h 86.898 l -2.25,2.25 v -86.897 l 2.25,2.25 h -86.898"
               style="fill:#fbe5d6;fill-opacity:1;fill-rule:nonzero;stroke:none"
               id="path32" /></g><g
             id="g34"><path
               d="m 597.48,209.64 h 86.88 v 86.88 h -86.88 z"
               style="fill:#ffffff;fill-opacity:1;fill-rule:evenodd;stroke:none"
               id="path36" /></g><g
             id="g38"><path
               d="m 686.646,207.431 v 91.397 h -91.398 v -91.397 z m -89.148,4.5 2.25,-2.25 v 86.897 l -2.25,-2.25 h 86.898 l -2.25,2.25 v -86.897 l 2.25,2.25 h -86.898"
               style="fill:#f4b183;fill-opacity:1;fill-rule:nonzero;stroke:none"
               id="path40" /></g><g
             id="g42"><path
               d="m 619.92,57.48 h 86.88 v 86.88 h -86.88 z"
               style="fill:#ffffff;fill-opacity:1;fill-rule:evenodd;stroke:none"
               id="path44" /></g><g
             id="g46"><path
               d="m 709.096,55.181 v 91.397 H 617.698 V 55.181 Z m -89.148,4.5 2.25,-2.25 v 86.897 l -2.25,-2.25 h 86.898 l -2.25,2.25 V 57.431 l 2.25,2.25 h -86.898"
               style="fill:#c55a11;fill-opacity:1;fill-rule:nonzero;stroke:none"
               id="path48" /></g><g
             id="g50"><path
               d="m 283.2,209.64 h 86.88 v 86.88 H 283.2 Z"
               style="fill:#ffffff;fill-opacity:1;fill-rule:evenodd;stroke:none"
               id="path52" /></g><g
             id="g54"><path
               d="m 372.346,207.431 v 91.397 h -91.398 v -91.397 z m -89.148,4.5 2.25,-2.25 v 86.897 l -2.25,-2.25 h 86.898 l -2.25,2.25 v -86.897 l 2.25,2.25 h -86.898"
               style="fill:#f8cbad;fill-opacity:1;fill-rule:nonzero;stroke:none"
               id="path56" /></g><g
             id="g58"><path
               d="m 257.52,231.6 h 86.88 v 86.88 h -86.88 z"
               style="fill:#ffffff;fill-opacity:1;fill-rule:evenodd;stroke:none"
               id="path60" /></g><g
             id="g62"><path
               d="m 346.649,229.348 v 91.398 h -91.397 v -91.398 z m -89.147,4.5 2.25,-2.25 v 86.898 l -2.25,-2.25 h 86.897 l -2.25,2.25 v -86.898 l 2.25,2.25 h -86.897"
               style="fill:#c55a11;fill-opacity:1;fill-rule:nonzero;stroke:none"
               id="path64" /></g><g
             id="g66"><path
               d="m 506.28,209.64 h 86.88 v 86.88 h -86.88 z"
               style="fill:#ffffff;fill-opacity:1;fill-rule:evenodd;stroke:none"
               id="path68" /></g><g
             id="g70"><path
               d="m 595.396,207.431 v 91.397 h -91.398 v -91.397 z m -89.148,4.5 2.25,-2.25 v 86.897 l -2.25,-2.25 h 86.898 l -2.25,2.25 v -86.897 l 2.25,2.25 h -86.898"
               style="fill:#f4b183;fill-opacity:1;fill-rule:nonzero;stroke:none"
               id="path72" /></g><g
             id="g74"><path
               d="m 283.2,246.96 h 148.56 v 49.68 H 283.2 Z"
               style="fill:#ffffff;fill-opacity:1;fill-rule:evenodd;stroke:none"
               id="path76" /></g><g
             id="g78"><path
               d="m 434.05,244.7 v 54.15 H 280.95 V 244.7 Z m -150.85,4.5 2.25,-2.25 v 49.65 l -2.25,-2.25 h 148.6 l -2.25,2.25 v -49.65 l 2.25,2.25 H 283.2"
               style="fill:#ffffff;fill-opacity:1;fill-rule:nonzero;stroke:none"
               id="path80" /></g><g
             id="g82"><text
               transform="translate(292.4,281.4)"
               style="font-variant:normal;font-weight:900;font-stretch:normal;font-size:27.95px;font-family:Arial;-inkscape-font-specification:Arial-Black;writing-mode:lr-tb;fill:#000000;fill-opacity:1;fill-rule:nonzero;stroke:none"
               id="text86"><tspan
                 x="0 26.450001 52.900002 63.799999 84.599998 108.35"
                 y="0"
                 id="tspan84">MMIVQA</tspan></text></g><g
             id="g88"><path
               d="m 344.88,380.88 h 86.88 v 87 h -86.88 z"
               style="fill:#ffffff;fill-opacity:1;fill-rule:evenodd;stroke:none"
               id="path90" /></g><g
             id="g92"><path
               d="m 434.046,378.681 v 91.397 h -91.398 v -91.397 z m -89.148,4.5 2.25,-2.25 v 86.897 l -2.25,-2.25 h 86.898 l -2.25,2.25 v -86.897 l 2.25,2.25 h -86.898"
               style="fill:#fbe5d6;fill-opacity:1;fill-rule:nonzero;stroke:none"
               id="path94" /></g><g
             id="g96"><path
               d="m 301.8,380.88 h 86.88 v 87 H 301.8 Z"
               style="fill:#ffffff;fill-opacity:1;fill-rule:evenodd;stroke:none"
               id="path98" /></g><g
             id="g100"><path
               d="m 390.896,378.681 v 91.397 h -91.398 v -91.397 z m -89.148,4.5 2.25,-2.25 v 86.897 l -2.25,-2.25 h 86.898 l -2.25,2.25 v -86.897 l 2.25,2.25 h -86.898"
               style="fill:#f8cbad;fill-opacity:1;fill-rule:nonzero;stroke:none"
               id="path102" /></g><g
             id="g104"><path
               d="m 257.52,381 h 86.88 v 86.88 h -86.88 z"
               style="fill:#ffffff;fill-opacity:1;fill-rule:evenodd;stroke:none"
               id="path106" /></g><g
             id="g108"><path
               d="m 346.649,378.698 v 91.398 h -91.397 v -91.398 z m -89.147,4.5 2.25,-2.25 v 86.898 l -2.25,-2.25 h 86.897 l -2.25,2.25 v -86.898 l 2.25,2.25 h -86.897"
               style="fill:#c55a11;fill-opacity:1;fill-rule:nonzero;stroke:none"
               id="path110" /></g><g
             id="g112"><path
               d="m 264.36,399.6 h 159.36 v 49.56 H 264.36 Z"
               style="fill:#ffffff;fill-opacity:1;fill-rule:evenodd;stroke:none"
               id="path114" /></g><g
             id="g116"><path
               d="m 425.95,397.3 v 54.15 H 262.1 V 397.3 Z m -161.6,4.5 2.25,-2.25 v 49.65 l -2.25,-2.25 H 423.7 l -2.25,2.25 v -49.65 l 2.25,2.25 H 264.35"
               style="fill:#ffffff;fill-opacity:1;fill-rule:nonzero;stroke:none"
               id="path118" /></g><g
             id="g120"><text
               transform="matrix(0.95242415,0,-0.30477573,0.95242415,278.95,434)"
               style="font-variant:normal;font-weight:900;font-stretch:normal;font-size:29.3462px;font-family:Arial;-inkscape-font-specification:Arial-Black;writing-mode:lr-tb;fill:#000000;fill-opacity:1;fill-rule:nonzero;stroke:none"
               id="text124"><tspan
                 x="0 27.77124 55.54248 66.986961 88.825974 113.76234"
                 y="0"
                 id="tspan122">MMIVQA</tspan></text></g><g
             id="g126"><path
               d="m 522,213.96 h 148.68 v 78.72 H 522 Z"
               style="fill:#ffffff;fill-opacity:1;fill-rule:evenodd;stroke:none"
               id="path128" /></g><g
             id="g130"><path
               d="m 672.9,211.75 v 83.2 H 519.8 v -83.2 z m -150.85,4.5 2.25,-2.25 v 78.7 l -2.25,-2.25 h 148.6 l -2.25,2.25 V 214 l 2.25,2.25 h -148.6"
               style="fill:#ffffff;fill-opacity:1;fill-rule:nonzero;stroke:none"
               id="path132" /></g><g
             id="g134"><text
               transform="translate(531.25,262.95)"
               style="font-variant:normal;font-weight:900;font-stretch:normal;font-size:27.95px;font-family:Arial;-inkscape-font-specification:Arial-Black;writing-mode:lr-tb;fill:#000000;fill-opacity:1;fill-rule:nonzero;stroke:none"
               id="text138"><tspan
                 x="0 26.450001 52.900002 63.799999 84.599998 108.35"
                 y="0"
                 id="tspan136">MMIVQA</tspan></text></g></g></g></g></g></svg>
